<svg width="393" height="363" viewBox="0 0 393 363" fill="none" xmlns="http://www.w3.org/2000/svg">
<path d="M0.92125 119V2.35999H33.0333C40.9053 2.35999 47.7213 3.22399 53.4813 4.95199C59.2413 6.67999 63.7053 9.79999 66.8733 14.312C70.1373 18.728 71.7693 25.016 71.7693 33.176C71.7693 37.976 71.3853 42.248 70.6173 45.992C69.8493 49.736 68.4093 53 66.2972 55.784C64.2813 58.472 61.3533 60.728 57.5133 62.552L73.4973 119H46.8573L34.0413 66.728H26.6973V119H0.92125ZM26.6973 51.896H33.8973C37.5453 51.896 40.3773 51.272 42.3933 50.024C44.4093 48.68 45.8013 46.808 46.5693 44.408C47.4333 41.912 47.8653 38.936 47.8653 35.48C47.8653 30.488 46.9533 26.6 45.1293 23.816C43.3053 21.032 39.9453 19.64 35.0493 19.64H26.6973V51.896ZM119.548 120.728C110.812 120.728 103.9 119.192 98.812 116.12C93.724 113.048 90.076 108.632 87.868 102.872C85.66 97.112 84.556 90.248 84.556 82.28V38.936C84.556 30.872 85.66 24.008 87.868 18.344C90.076 12.68 93.724 8.36 98.812 5.384C103.9 2.31199 110.812 0.775994 119.548 0.775994C128.38 0.775994 135.34 2.31199 140.428 5.384C145.612 8.36 149.308 12.68 151.516 18.344C153.724 24.008 154.828 30.872 154.828 38.936V82.28C154.828 90.248 153.724 97.112 151.516 102.872C149.308 108.632 145.612 113.048 140.428 116.12C135.34 119.192 128.38 120.728 119.548 120.728ZM119.548 102.44C122.236 102.44 124.204 101.768 125.452 100.424C126.7 99.08 127.516 97.352 127.9 95.24C128.284 93.128 128.476 90.968 128.476 88.76V32.6C128.476 30.296 128.284 28.136 127.9 26.12C127.516 24.008 126.7 22.28 125.452 20.936C124.204 19.592 122.236 18.92 119.548 18.92C117.052 18.92 115.18 19.592 113.932 20.936C112.684 22.28 111.868 24.008 111.484 26.12C111.1 28.136 110.908 30.296 110.908 32.6V88.76C110.908 90.968 111.052 93.128 111.34 95.24C111.724 97.352 112.492 99.08 113.644 100.424C114.892 101.768 116.86 102.44 119.548 102.44ZM170.515 119V2.35999H200.035C210.211 2.35999 218.131 3.65599 223.795 6.24799C229.459 8.74399 233.443 12.728 235.747 18.2C238.051 23.576 239.203 30.584 239.203 39.224V81.56C239.203 90.296 238.051 97.448 235.747 103.016C233.443 108.488 229.459 112.52 223.795 115.112C218.227 117.704 210.403 119 200.323 119H170.515ZM196.291 101.144H200.323C204.259 101.144 207.091 100.568 208.819 99.416C210.547 98.264 211.603 96.536 211.987 94.232C212.467 91.928 212.707 89.048 212.707 85.592V34.76C212.707 31.304 212.419 28.52 211.843 26.408C211.363 24.296 210.259 22.76 208.531 21.8C206.803 20.84 204.019 20.36 200.179 20.36H196.291V101.144ZM247.587 119L269.619 2.35999H298.995L320.739 119H296.979L293.091 94.376H275.955L271.923 119H247.587ZM278.259 78.968H290.643L284.451 33.464L278.259 78.968ZM362.35 120.728C355.054 120.728 348.958 119.432 344.062 116.84C339.166 114.248 335.47 110.264 332.974 104.888C330.478 99.416 329.086 92.36 328.798 83.72L350.83 80.408C350.926 85.4 351.358 89.432 352.126 92.504C352.99 95.576 354.142 97.784 355.582 99.128C357.118 100.472 358.942 101.144 361.054 101.144C363.742 101.144 365.47 100.232 366.238 98.408C367.102 96.584 367.534 94.664 367.534 92.648C367.534 87.848 366.382 83.816 364.078 80.552C361.774 77.192 358.654 73.832 354.718 70.472L344.638 61.688C340.222 57.944 336.478 53.72 333.406 49.016C330.43 44.216 328.942 38.312 328.942 31.304C328.942 21.416 331.87 13.88 337.726 8.696C343.582 3.41599 351.55 0.775994 361.63 0.775994C367.87 0.775994 372.862 1.832 376.606 3.944C380.446 6.056 383.326 8.84 385.246 12.296C387.262 15.656 388.606 19.256 389.278 23.096C390.046 26.84 390.478 30.44 390.574 33.896L368.398 36.632C368.302 33.176 368.062 30.2 367.678 27.704C367.39 25.112 366.718 23.144 365.662 21.8C364.606 20.36 362.974 19.64 360.766 19.64C358.366 19.64 356.59 20.648 355.438 22.664C354.382 24.68 353.854 26.696 353.854 28.712C353.854 33.032 354.862 36.584 356.878 39.368C358.99 42.056 361.726 44.888 365.086 47.864L374.734 56.36C379.822 60.68 384.094 65.576 387.55 71.048C391.102 76.52 392.878 83.288 392.878 91.352C392.878 96.824 391.63 101.816 389.134 106.328C386.638 110.744 383.086 114.248 378.478 116.84C373.966 119.432 368.59 120.728 362.35 120.728ZM42.8978 241V124.36H82.0658C89.0738 124.36 94.8338 125.704 99.3458 128.392C103.858 130.984 107.218 134.824 109.426 139.912C111.634 144.904 112.738 151 112.738 158.2C112.738 167.224 111.25 174.136 108.274 178.936C105.298 183.64 101.266 186.904 96.1778 188.728C91.0898 190.552 85.3778 191.464 79.0418 191.464H68.6738V241H42.8978ZM68.6738 173.464H77.3138C80.4818 173.464 82.8818 172.888 84.5138 171.736C86.1458 170.584 87.2018 168.856 87.6818 166.552C88.2578 164.248 88.5458 161.32 88.5458 157.768C88.5458 154.792 88.3058 152.2 87.8258 149.992C87.4418 147.688 86.4338 145.864 84.8018 144.52C83.1698 143.176 80.6258 142.504 77.1698 142.504H68.6738V173.464ZM112.797 241L134.829 124.36H164.205L185.949 241H162.189L158.301 216.376H141.165L137.133 241H112.797ZM143.469 200.968H155.853L149.661 155.464L143.469 200.968ZM197.726 241V124.36H229.838C237.71 124.36 244.526 125.224 250.286 126.952C256.046 128.68 260.51 131.8 263.678 136.312C266.942 140.728 268.574 147.016 268.574 155.176C268.574 159.976 268.19 164.248 267.422 167.992C266.654 171.736 265.214 175 263.102 177.784C261.086 180.472 258.158 182.728 254.318 184.552L270.302 241H243.662L230.846 188.728H223.502V241H197.726ZM223.502 173.896H230.702C234.35 173.896 237.182 173.272 239.198 172.024C241.214 170.68 242.606 168.808 243.374 166.408C244.238 163.912 244.67 160.936 244.67 157.48C244.67 152.488 243.758 148.6 241.934 145.816C240.11 143.032 236.75 141.64 231.854 141.64H223.502V173.896ZM278.454 241L300.486 124.36H329.862L351.606 241H327.846L323.958 216.376H306.822L302.79 241H278.454ZM309.126 200.968H321.51L315.318 155.464L309.126 200.968Z" fill="#222222"/>
<path d="M78.1373 363L57.1133 246.36H79.1453L91.6733 325.56L103.337 246.36H126.665L105.353 363H78.1373ZM138.526 363V246.36H164.302V363H138.526ZM181.695 363V246.36H211.215C221.391 246.36 229.311 247.656 234.975 250.248C240.639 252.744 244.623 256.728 246.927 262.2C249.231 267.576 250.383 274.584 250.383 283.224V325.56C250.383 334.296 249.231 341.448 246.927 347.016C244.623 352.488 240.639 356.52 234.975 359.112C229.407 361.704 221.583 363 211.503 363H181.695ZM207.471 345.144H211.503C215.439 345.144 218.271 344.568 219.999 343.416C221.727 342.264 222.783 340.536 223.167 338.232C223.647 335.928 223.887 333.048 223.887 329.592V278.76C223.887 275.304 223.599 272.52 223.023 270.408C222.543 268.296 221.439 266.76 219.711 265.8C217.983 264.84 215.199 264.36 211.359 264.36H207.471V345.144ZM258.766 363L280.798 246.36H310.174L331.918 363H308.158L304.27 338.376H287.134L283.102 363H258.766ZM289.438 322.968H301.822L295.63 277.464L289.438 322.968Z" fill="#E8042F"/>
</svg>
